<svg clip-rule="evenodd" fill-rule="evenodd" height="512" image-rendering="optimizeQuality" shape-rendering="geometricPrecision" text-rendering="geometricPrecision" viewBox="0 0 28444 28444" width="512" xmlns="http://www.w3.org/2000/svg" xmlns:xlink="http://www.w3.org/1999/xlink"><linearGradient id="id0" gradientUnits="userSpaceOnUse" x1="14222.2" x2="14222.2" y1="24386.4" y2="3481.39"><stop offset="0" stop-color="#ff81ff"/><stop offset="1" stop-color="#a93aff"/></linearGradient><g id="Layer_x0020_1"><path d="m14363 7079c604 2 1167 40 1752 120 5758 792 8651 3876 8717 9099 8 663-23 1275-93 1840h1455c439 0 439 667 0 667h-1561c-44 227-95 446-154 656l987 238c425 103 269 749-156 646l-1038-251c-1436 3771-5637 4292-10103 4287-4443-5-8573-552-9997-4285l-1031 249c-425 103-581-543-156-646l979-236c-59-211-110-430-155-658h-1561c-439 0-439-667 0-667h1455c-70-564-101-1176-93-1840 66-5223 2959-8307 8717-9099 864-119 1664-122 2034-120zm9880 4562c423-2119 781-6459-1542-7439-1710-721-3856 1397-4924 2852 2752 646 5156 2013 6466 4587zm-20043 0c-423-2119-781-6458 1542-7438 1710-721 3856 1397 4924 2851-2752 646-5156 2013-6466 4587zm5353 3672c-310 310-782-161-471-471l1522-1522-1522-1522c-310-310 161-782 471-471l1522 1522 1522-1522c310-310 782 161 471 471l-1522 1522 1522 1522c310 310-161 782-471 471l-1522-1522zm6292 0c-310 310-782-161-471-471l1522-1522-1522-1522c-310-310 161-782 471-471l1522 1522 1522-1522c310-310 782 161 471 471l-1522 1522 1522 1522c310 310-161 782-471 471l-1522-1522z" fill="url(#id0)"/></g></svg>