<?xml version="1.0" encoding="UTF-8" standalone="no"?>
<!-- Created with Inkscape (http://www.inkscape.org/) -->

<svg
   version="1.1"
   id="svg4119"
   xml:space="preserve"
   width="682.66669"
   height="682.66669"
   viewBox="0 0 682.66669 682.66669"
   xmlns="http://www.w3.org/2000/svg"
   xmlns:svg="http://www.w3.org/2000/svg"><defs
     id="defs4123"><clipPath
       clipPathUnits="userSpaceOnUse"
       id="clipPath4133"><path
         d="M 0,512 H 512 V 0 H 0 Z"
         id="path4131" /></clipPath></defs><g
     id="g4125"
     transform="matrix(1.3333333,0,0,-1.3333333,0,682.66667)"><g
       id="g4127"><g
         id="g4129"
         clip-path="url(#clipPath4133)"><g
           id="g4135"
           transform="translate(256,496.9999)"><path
             d="m 0,0 v 0 c -103.922,0 -188.167,-84.245 -188.167,-188.167 v -137.977 c 0,-33.905 27.485,-61.39 61.39,-61.39 h 0.837 V -482 h 252.517 v 94.466 c 33.905,0 61.59,27.485 61.59,61.39 v 137.977 C 188.167,-84.245 103.922,0 0,0 Z"
             style="fill:none;stroke:#000000;stroke-width:30;stroke-linecap:butt;stroke-linejoin:miter;stroke-miterlimit:10;stroke-dasharray:none;stroke-opacity:1"
             id="path4137" /></g><g
           id="g4139"
           transform="translate(193.6997,80.3144)"><path
             d="M 0,0 V -65.478"
             style="fill:none;stroke:#000000;stroke-width:30;stroke-linecap:butt;stroke-linejoin:miter;stroke-miterlimit:10;stroke-dasharray:none;stroke-opacity:1"
             id="path4141" /></g><g
           id="g4143"
           transform="translate(319.1196,79.541)"><path
             d="M 0,0 V -65.479"
             style="fill:none;stroke:#000000;stroke-width:30;stroke-linecap:butt;stroke-linejoin:miter;stroke-miterlimit:10;stroke-dasharray:none;stroke-opacity:1"
             id="path4145" /></g><g
           id="g4147"
           transform="translate(256.4097,80.3144)"><path
             d="M 0,0 V -65.478"
             style="fill:none;stroke:#000000;stroke-width:30;stroke-linecap:butt;stroke-linejoin:miter;stroke-miterlimit:10;stroke-dasharray:none;stroke-opacity:1"
             id="path4149" /></g><g
           id="g4151"
           transform="translate(220.7837,160.5966)"><path
             d="M 0,0 35.216,35.216 70.433,0"
             style="fill:none;stroke:#000000;stroke-width:30;stroke-linecap:butt;stroke-linejoin:miter;stroke-miterlimit:10;stroke-dasharray:none;stroke-opacity:1"
             id="path4153" /></g><g
           id="g4155"
           transform="translate(136.8892,319.5468)"><path
             d="M 0,0 70.464,-70.464"
             style="fill:none;stroke:#000000;stroke-width:30;stroke-linecap:butt;stroke-linejoin:miter;stroke-miterlimit:10;stroke-dasharray:none;stroke-opacity:1"
             id="path4157" /></g><g
           id="g4159"
           transform="translate(207.353,319.5468)"><path
             d="M 0,0 -70.464,-70.464"
             style="fill:none;stroke:#000000;stroke-width:30;stroke-linecap:butt;stroke-linejoin:miter;stroke-miterlimit:10;stroke-dasharray:none;stroke-opacity:1"
             id="path4161" /></g><g
           id="g4163"
           transform="translate(304.647,319.5468)"><path
             d="M 0,0 70.464,-70.464"
             style="fill:none;stroke:#000000;stroke-width:30;stroke-linecap:butt;stroke-linejoin:miter;stroke-miterlimit:10;stroke-dasharray:none;stroke-opacity:1"
             id="path4165" /></g><g
           id="g4167"
           transform="translate(375.1108,319.5468)"><path
             d="M 0,0 -70.464,-70.464"
             style="fill:none;stroke:#000000;stroke-width:30;stroke-linecap:butt;stroke-linejoin:miter;stroke-miterlimit:10;stroke-dasharray:none;stroke-opacity:1"
             id="path4169" /></g></g></g></g></svg>
