<svg id="Capa_1" enable-background="new 0 0 510 510" height="512" viewBox="0 0 510 510" width="512" xmlns="http://www.w3.org/2000/svg" xmlns:xlink="http://www.w3.org/1999/xlink"><linearGradient id="lg1"><stop offset="0" stop-color="#fef0ae"/><stop offset="1" stop-color="#fac600"/></linearGradient><linearGradient id="SVGID_1_" gradientUnits="userSpaceOnUse" x1="125.277" x2="239.64" xlink:href="#lg1" y1="265.25" y2="351.403"/><linearGradient id="lg2"><stop offset="0" stop-color="#fea613" stop-opacity="0"/><stop offset=".2032" stop-color="#fda215" stop-opacity=".203"/><stop offset=".4052" stop-color="#fb961b" stop-opacity=".405"/><stop offset=".6066" stop-color="#f68225" stop-opacity=".607"/><stop offset=".8066" stop-color="#f06633" stop-opacity=".807"/><stop offset="1" stop-color="#e94444"/></linearGradient><linearGradient id="SVGID_00000161614891351659712260000002451165360987803534_" gradientUnits="userSpaceOnUse" x1="-71.941" x2="307.172" xlink:href="#lg2" y1="3.873" y2="437.88"/><linearGradient id="SVGID_00000133522649196578927420000006535361529803591820_" gradientUnits="userSpaceOnUse" x1="199.097" x2="164.788" xlink:href="#lg2" y1="283.262" y2="298.891"/><linearGradient id="SVGID_00000183248696800157559180000017774234496581081004_" gradientUnits="userSpaceOnUse" x1="-60.342" x2="111.774" xlink:href="#lg1" y1="172.82" y2="423.847"/><linearGradient id="SVGID_00000070111979452451790670000018033364357899937689_" gradientUnits="userSpaceOnUse" x1="-111.581" x2="157.744" xlink:href="#lg2" y1="166.025" y2="445.07"/><linearGradient id="SVGID_00000044148406111920502040000005387696884813765009_" gradientUnits="userSpaceOnUse" x1="93.399" x2="48.797" xlink:href="#lg2" y1="296.616" y2="300.428"/><linearGradient id="SVGID_00000075162332375263798130000003395063091837352343_" gradientUnits="userSpaceOnUse" x1="106.979" x2="221.342" xlink:href="#lg1" y1="246.952" y2="333.105"/><linearGradient id="SVGID_00000079458664857800836700000008739566142210563225_" gradientUnits="userSpaceOnUse" x1="279.749" x2="37.917" xlink:href="#lg1" y1="314.958" y2="314.958"/><linearGradient id="SVGID_00000106110968750924485610000010907606345988050850_" gradientUnits="userSpaceOnUse" x1="174.532" x2="174.532" xlink:href="#lg2" y1="368.944" y2="422.02"/><linearGradient id="SVGID_00000181774594308262358230000006543955145723022746_" gradientUnits="userSpaceOnUse" x1="202.127" x2="234.148" xlink:href="#lg2" y1="316.517" y2="326.429"/><linearGradient id="SVGID_00000134212228750979519870000000953087510957194912_" gradientUnits="userSpaceOnUse" x1="-12.157" x2="74.758" xlink:href="#lg1" y1="294.742" y2="334.388"/><linearGradient id="SVGID_00000039832096086312563170000015447768883905863309_" gradientUnits="userSpaceOnUse" x1="150.901" x2="-92.617" xlink:href="#lg1" y1="314.212" y2="314.212"/><linearGradient id="SVGID_00000031913770579967126510000016208561888926461071_" gradientUnits="userSpaceOnUse" x1="64.783" x2="64.783" xlink:href="#lg2" y1="386.48" y2="418.502"/><linearGradient id="SVGID_00000145046577127306574920000000164550033326854020_" gradientUnits="userSpaceOnUse" x1="92.576" x2="130.818" xlink:href="#lg2" y1="388.201" y2="388.201"/><linearGradient id="SVGID_00000106132313035052380220000010803782683947377330_" gradientUnits="userSpaceOnUse" x1="223.485" x2="286.959" xlink:href="#lg1" y1="361.165" y2="424.639"/><linearGradient id="SVGID_00000118373027400911648070000016179160694093812637_" gradientUnits="userSpaceOnUse" x1="183.754" x2="288.968" xlink:href="#lg2" y1="329.303" y2="424.796"/><linearGradient id="SVGID_00000160886921178530805890000007978824747302375819_" gradientUnits="userSpaceOnUse" x1="241.384" x2="269.288" xlink:href="#lg1" y1="376.586" y2="404.49"/><linearGradient id="SVGID_00000060738090102720087570000010384182902226400132_" gradientUnits="userSpaceOnUse" x1="269.898" x2="232.638" xlink:href="#lg1" y1="405.1" y2="367.84"/><linearGradient id="SVGID_00000030472664315232086790000007164652591627415480_" gradientUnits="userSpaceOnUse" x1="253.105" x2="253.105" xlink:href="#lg2" y1="388.739" y2="416.141"/><linearGradient id="SVGID_00000132087766124393974080000004903694100865381002_" gradientUnits="userSpaceOnUse" x1="258.012" x2="274.233" xlink:href="#lg2" y1="393.214" y2="409.435"/><linearGradient id="SVGID_00000021819697560369319990000010991588882199691172_" gradientUnits="userSpaceOnUse" x1="147.08" x2="211.886" xlink:href="#lg1" y1="77.604" y2="180.53"/><linearGradient id="SVGID_00000076566608781547785220000006820505942736800930_" gradientUnits="userSpaceOnUse" x1="139.003" x2="90.961" xlink:href="#lg1" y1="161.574" y2="113.532"/><linearGradient id="SVGID_00000128468140844859697010000009033114010181132456_" gradientUnits="userSpaceOnUse" x1="243.043" x2="227.185" xlink:href="#lg1" y1="147.5" y2="131.642"/><linearGradient id="SVGID_00000043419179511742526480000002429201397751387048_" gradientUnits="userSpaceOnUse" x1="190.186" x2="160.144" xlink:href="#lg1" y1="157.277" y2="127.235"/><linearGradient id="SVGID_00000051359596143936513040000011025706460540407458_" gradientUnits="userSpaceOnUse" x1="174.463" x2="174.463" xlink:href="#lg2" y1="141.744" y2="176.442"/><linearGradient id="SVGID_00000096762618312811718590000006325506526519279268_" gradientUnits="userSpaceOnUse" x1="225.082" x2="262.06" xlink:href="#lg2" y1="134.927" y2="147.126"/><linearGradient id="SVGID_00000159445043609234211450000015497933348182471572_" gradientUnits="userSpaceOnUse" x1="174.463" x2="174.463" xlink:href="#lg1" y1="171.883" y2="201.618"/><linearGradient id="SVGID_00000023983083234935108560000017934702838352602804_" gradientUnits="userSpaceOnUse" x1="227.451" x2="278.915" xlink:href="#lg2" y1="182.388" y2="182.388"/><linearGradient id="lg3"><stop offset="0" stop-color="#bbec6c"/><stop offset="1" stop-color="#78a91f"/></linearGradient><linearGradient id="SVGID_00000152257862131407762940000010637112954358777494_" gradientUnits="userSpaceOnUse" x1="330.676" x2="435.914" xlink:href="#lg3" y1="163.247" y2="268.486"/><linearGradient id="lg4"><stop offset="0" stop-color="#026841" stop-opacity="0"/><stop offset=".3243" stop-color="#046842" stop-opacity=".324"/><stop offset=".5509" stop-color="#0e6546" stop-opacity=".551"/><stop offset=".7476" stop-color="#1d614c" stop-opacity=".748"/><stop offset=".9263" stop-color="#335c54" stop-opacity=".926"/><stop offset="1" stop-color="#3e5959"/></linearGradient><linearGradient id="SVGID_00000067944599437847983170000009831155732682204322_" gradientUnits="userSpaceOnUse" x1="389.001" x2="389.001" xlink:href="#lg4" y1="285.841" y2="330.676"/><linearGradient id="SVGID_00000095296345559928651370000009466455620103301547_" gradientUnits="userSpaceOnUse" x1="389.001" x2="389.001" xlink:href="#lg3" y1="405.922" y2="442.522"/><linearGradient id="SVGID_00000139259950209736168890000009469793533536491191_" gradientUnits="userSpaceOnUse" x1="389.001" x2="389.001" xlink:href="#lg4" y1="367.61" y2="453.954"/><linearGradient id="SVGID_00000158010417733061962760000009201678051902995862_" gradientUnits="userSpaceOnUse" x1="389.001" x2="389.001" xlink:href="#lg3" y1="364.751" y2="416.789"/><linearGradient id="SVGID_00000121245921632241566480000006981997311946725014_" gradientUnits="userSpaceOnUse" x1="389.001" x2="389.001" xlink:href="#lg4" y1="364.751" y2="416.789"/><linearGradient id="SVGID_00000084488039887940884920000012965347312488117679_" gradientUnits="userSpaceOnUse" x1="389.001" x2="389.001" xlink:href="#lg3" y1="333.873" y2="389.914"/><linearGradient id="SVGID_00000120546456545391598590000002040772830361009341_" gradientUnits="userSpaceOnUse" x1="389.001" x2="389.001" xlink:href="#lg4" y1="295.562" y2="404.78"/><linearGradient id="SVGID_00000041993224175234500650000001290783651858865812_" gradientUnits="userSpaceOnUse" x1="421.369" x2="455.023" xlink:href="#lg4" y1="426.015" y2="426.015"/><linearGradient id="SVGID_00000170978536518161337080000008077317965969074864_" gradientUnits="userSpaceOnUse" x1="421.369" x2="455.023" xlink:href="#lg4" y1="393.37" y2="393.37"/><linearGradient id="SVGID_00000101101412433717267560000016247780281833686427_" gradientUnits="userSpaceOnUse" x1="421.369" x2="455.023" xlink:href="#lg4" y1="354.298" y2="354.298"/><g><g><g><path d="m192.886 436.339c-18.319 0-32.219-8.024-36.278-20.94l-46.621-152.076-.073-.296c-.376-1.506-.837-3.356-.837-5.5 0-17.612 21.468-27.353 36.307-27.353 12.054 0 20.906 5.797 23.68 15.507l23.782 87.143 23.614-87.143c2.774-9.71 11.626-15.507 23.68-15.507 14.839 0 36.306 9.741 36.306 27.353 0 2.159-.485 4.098-.839 5.513l-.07.281-46.343 151.986c-4.089 13.008-17.99 21.032-36.308 21.032z" fill="url(#SVGID_1_)"/><path d="m192.886 436.339c-18.319 0-32.219-8.024-36.278-20.94l-46.621-152.076-.073-.296c-.376-1.506-.837-3.356-.837-5.5 0-17.612 21.468-27.353 36.307-27.353 12.054 0 20.906 5.797 23.68 15.507l23.782 87.143 23.614-87.143c2.774-9.71 11.626-15.507 23.68-15.507 14.839 0 36.306 9.741 36.306 27.353 0 2.159-.485 4.098-.839 5.513l-.07.281-46.343 151.986c-4.089 13.008-17.99 21.032-36.308 21.032z" fill="url(#SVGID_00000161614891351659712260000002451165360987803534_)"/><path d="m191.309 327.19-22.245-81.51c-2.774-9.71-11.626-15.507-23.68-15.507-14.839 0-36.307 9.741-36.307 27.353 0 2.144.461 3.994.837 5.5l.073.296 32.263 105.241h49.059z" fill="url(#SVGID_00000133522649196578927420000006535361529803591820_)"/><path d="m46.646 434.847c-16.426 0-28.348-9.83-28.348-23.374v-158.175c0-13.832 12.392-23.126 30.836-23.126s30.836 9.294 30.836 23.126v124.853h45.267c13.112 0 22.628 11.922 22.628 28.348s-9.516 28.348-22.628 28.348z" fill="url(#SVGID_00000183248696800157559180000017774234496581081004_)"/><path d="m46.646 434.847c-16.426 0-28.348-9.83-28.348-23.374v-158.175c0-13.832 12.392-23.126 30.836-23.126s30.836 9.294 30.836 23.126v124.853h45.267c13.112 0 22.628 11.922 22.628 28.348s-9.516 28.348-22.628 28.348z" fill="url(#SVGID_00000070111979452451790670000018033364357899937689_)"/><path d="m79.969 368.182v-114.884c0-13.832-12.392-23.126-30.836-23.126s-30.836 9.294-30.836 23.126v114.884z" fill="url(#SVGID_00000044148406111920502040000005387696884813765009_)"/><g><path d="m174.588 418.041c-18.319 0-32.219-8.024-36.278-20.94l-46.621-152.077-.073-.296c-.376-1.506-.837-3.356-.837-5.5 0-17.612 21.468-27.353 36.307-27.353 12.054 0 20.906 5.797 23.68 15.507l23.782 87.143 23.614-87.143c2.774-9.71 11.626-15.507 23.68-15.507 14.839 0 36.306 9.741 36.306 27.353 0 2.159-.485 4.098-.839 5.513l-.07.281-46.343 151.986c-4.089 13.009-17.99 21.033-36.308 21.033z" fill="url(#SVGID_00000075162332375263798130000003395063091837352343_)"/><path d="m102.712 241.963c-.248-.995-.497-1.99-.497-2.736 0-9.202 14.176-15.917 24.871-15.917 6.217 0 11.192 1.99 12.684 7.212l34.818 127.584 34.57-127.584c1.492-5.223 6.465-7.212 12.684-7.212 10.694 0 24.869 6.715 24.869 15.917 0 .746-.248 1.741-.497 2.736l-46.259 151.709c-2.735 8.705-13.927 12.932-25.368 12.932s-22.632-4.228-25.368-12.932z" fill="url(#SVGID_00000079458664857800836700000008739566142210563225_)"/><path d="m117.407 328.917 20.903 68.183c4.059 12.917 17.959 20.94 36.278 20.94s32.219-8.024 36.307-21.033l20.762-68.09z" fill="url(#SVGID_00000106110968750924485610000010907606345988050850_)"/><path d="m174.588 418.041c18.319 0 32.219-8.024 36.307-21.033l46.343-151.986.07-.281c.354-1.415.839-3.353.839-5.513 0-17.612-21.467-27.353-36.306-27.353-12.054 0-20.906 5.797-23.68 15.507l-23.614 87.143-30.967 91.801c6.544 7.39 17.579 11.715 31.008 11.715z" fill="url(#SVGID_00000181774594308262358230000006543955145723022746_)"/></g><g><path d="m28.348 416.549c-16.426 0-28.348-9.83-28.348-23.374v-158.175c0-13.832 12.392-23.126 30.836-23.126s30.835 9.294 30.835 23.126v124.853h45.267c13.112 0 22.628 11.922 22.628 28.348s-9.516 28.348-22.628 28.348z" fill="url(#SVGID_00000134212228750979519870000000953087510957194912_)"/><path d="m28.348 405.113c-8.455 0-16.912-3.979-16.912-11.938v-158.175c0-8.208 9.7-11.689 19.399-11.689s19.4 3.481 19.4 11.689v136.289h56.703c7.462 0 11.192 8.456 11.192 16.912s-3.73 16.912-11.192 16.912z" fill="url(#SVGID_00000039832096086312563170000015447768883905863309_)"/><path d="m0 329.299v63.876c0 13.544 11.922 23.374 28.348 23.374h78.59c13.112 0 22.628-11.922 22.628-28.348s-9.516-28.348-22.628-28.348h-45.267v-30.554z" fill="url(#SVGID_00000031913770579967126510000016208561888926461071_)"/><path d="m106.938 359.853h-45.267v56.696h45.267c13.112 0 22.628-11.922 22.628-28.348s-9.516-28.348-22.628-28.348z" fill="url(#SVGID_00000145046577127306574920000000164550033326854020_)"/></g></g><g><circle cx="268.925" cy="406.605" fill="url(#SVGID_00000106132313035052380220000010803782683947377330_)" r="29.734"/><circle cx="268.925" cy="406.605" fill="url(#SVGID_00000118373027400911648070000016179160694093812637_)" r="29.734"/><g><circle cx="253.105" cy="388.307" fill="url(#SVGID_00000160886921178530805890000007978824747302375819_)" r="29.734"/><circle cx="253.105" cy="388.307" fill="url(#SVGID_00000060738090102720087570000010384182902226400132_)" r="19.823"/><path d="m223.37 388.307c0 16.422 13.312 29.734 29.734 29.734s29.734-13.313 29.734-29.734c0-3.557-.627-6.966-1.772-10.127h-55.925c-1.144 3.16-1.771 6.57-1.771 10.127z" fill="url(#SVGID_00000030472664315232086790000007164652591627415480_)"/><path d="m232.079 409.332c11.612 11.612 30.439 11.612 42.051 0s11.612-30.439 0-42.051c-2.515-2.515-5.369-4.483-8.414-5.908l-39.545 39.545c1.425 3.045 3.393 5.899 5.908 8.414z" fill="url(#SVGID_00000132087766124393974080000004903694100865381002_)"/></g></g></g><g><path d="m199.86 112.632-16.122-33.169c-3.762-7.739-14.789-7.739-18.55 0l-16.122 33.169c-4.606 9.476-17.221 11.507-24.568 3.955l-25.918-26.64c-7.279-7.481-19.791-.654-17.439 9.515l17.94 77.568h150.763l17.94-77.568c2.352-10.17-10.161-16.997-17.439-9.515l-25.917 26.64c-7.347 7.552-19.962 5.521-24.568-3.955z" fill="url(#SVGID_00000021819697560369319990000010991588882199691172_)"/><g><path d="m99.547 122.914 4.7 20.9c.747 3.321 3.696 5.681 7.101 5.681h23.527c4.386 0 6.074-5.714 2.392-8.098l-33.307-21.559c-2.185-1.415-4.984.537-4.413 3.076z" fill="url(#SVGID_00000076566608781547785220000006820505942736800930_)"/><path d="m249.379 122.914-4.7 20.9c-.747 3.321-3.696 5.681-7.101 5.681h-23.527c-4.386 0-6.075-5.714-2.392-8.098l33.307-21.559c2.185-1.415 4.984.537 4.413 3.076z" fill="url(#SVGID_00000128468140844859697010000009033114010181132456_)"/></g><path d="m170.874 121.409-14.135 21.417c-1.887 2.859.163 6.669 3.589 6.669h28.27c3.426 0 5.476-3.81 3.589-6.669l-14.135-21.417c-1.699-2.576-5.478-2.576-7.178 0z" fill="url(#SVGID_00000043419179511742526480000002429201397751387048_)"/><path d="m227.027 113.915-2.599 2.671c-6.998 7.193-18.76 5.676-23.843-2.671h-52.244c-5.083 8.348-16.845 9.865-23.843 2.671l-2.599-2.671h-37.415l14.597 63.114h150.763l14.597-63.114z" fill="url(#SVGID_00000051359596143936513040000011025706460540407458_)"/><path d="m250.346 89.947-25.918 26.64c-7.347 7.552-19.962 5.521-24.568-3.955l-16.122-33.169c-2.206-4.539-6.908-6.395-11.181-5.609v103.176h77.288l17.94-77.568c2.352-10.17-10.161-16.997-17.439-9.515z" fill="url(#SVGID_00000096762618312811718590000006325506526519279268_)"/><path d="m254.632 197.781h-160.337c-5.918 0-10.715-4.797-10.715-10.715v-9.356c0-5.918 4.797-10.715 10.715-10.715h160.337c5.918 0 10.715 4.797 10.715 10.715v9.356c0 5.918-4.798 10.715-10.715 10.715z" fill="url(#SVGID_00000159445043609234211450000015497933348182471572_)"/><path d="m254.632 166.996h-77.5v30.786h77.5c5.918 0 10.715-4.797 10.715-10.715v-9.356c0-5.918-4.798-10.715-10.715-10.715z" fill="url(#SVGID_00000023983083234935108560000017934702838352602804_)"/></g><g><g><path d="m505.309 173.776-107.6-92.321c-5.009-4.298-12.405-4.298-17.415 0l-107.6 92.321c-9.419 8.082-3.704 23.521 8.707 23.521h22.321c10.491 0 18.996 8.505 18.996 18.996v97.009c0 8.203 6.65 14.853 14.853 14.853h102.859c8.203 0 14.853-6.65 14.853-14.853v-97.009c0-10.491 8.505-18.996 18.996-18.996h22.321c12.413 0 18.128-15.439 8.709-23.521z" fill="url(#SVGID_00000152257862131407762940000010637112954358777494_)"/><path d="m322.719 231.518v81.784c0 8.203 6.65 14.853 14.853 14.853h102.858c8.203 0 14.853-6.65 14.853-14.853v-81.784z" fill="url(#SVGID_00000067944599437847983170000009831155732682204322_)"/></g><path d="m322.719 426.013c0 5.703 4.623 10.326 10.326 10.326h111.912c5.703 0 10.326-4.623 10.326-10.326 0-5.703-4.623-10.326-10.326-10.326h-111.912c-5.703 0-10.326 4.623-10.326 10.326z" fill="url(#SVGID_00000095296345559928651370000009466455620103301547_)"/><path d="m322.719 426.013c0 5.703 4.623 10.326 10.326 10.326h111.912c5.703 0 10.326-4.623 10.326-10.326 0-5.703-4.623-10.326-10.326-10.326h-111.912c-5.703 0-10.326 4.623-10.326 10.326z" fill="url(#SVGID_00000139259950209736168890000009469793533536491191_)"/><path d="m322.719 390.056v6.63c0 5.703 4.623 10.326 10.326 10.326h111.912c5.703 0 10.326-4.623 10.326-10.326v-6.63c0-5.703-4.623-10.326-10.326-10.326h-111.912c-5.703 0-10.326 4.623-10.326 10.326z" fill="url(#SVGID_00000158010417733061962760000009201678051902995862_)"/><path d="m322.719 390.056v6.63c0 5.703 4.623 10.326 10.326 10.326h111.912c5.703 0 10.326-4.623 10.326-10.326v-6.63c0-5.703-4.623-10.326-10.326-10.326h-111.912c-5.703 0-10.326 4.623-10.326 10.326z" fill="url(#SVGID_00000121245921632241566480000006981997311946725014_)"/><path d="m322.719 347.17v14.254c0 5.703 4.623 10.326 10.326 10.326h111.912c5.703 0 10.326-4.623 10.326-10.326v-14.254c0-5.703-4.623-10.326-10.326-10.326h-111.912c-5.703 0-10.326 4.623-10.326 10.326z" fill="url(#SVGID_00000084488039887940884920000012965347312488117679_)"/><path d="m322.719 347.17v14.254c0 5.703 4.623 10.326 10.326 10.326h111.912c5.703 0 10.326-4.623 10.326-10.326v-14.254c0-5.703-4.623-10.326-10.326-10.326h-111.912c-5.703 0-10.326 4.623-10.326 10.326z" fill="url(#SVGID_00000120546456545391598590000002040772830361009341_)"/><path d="m455.289 426.015c0 5.695-4.632 10.327-10.327 10.327h-64.764v-20.654h64.764c2.848 0 5.432 1.155 7.296 3.019 1.876 1.876 3.031 4.461 3.031 7.308z" fill="url(#SVGID_00000041993224175234500650000001290783651858865812_)"/><path d="m455.289 390.06v6.622c0 5.707-4.632 10.327-10.327 10.327h-64.764v-27.276h64.764c5.695 0 10.327 4.62 10.327 10.327z" fill="url(#SVGID_00000170978536518161337080000008077317965969074864_)"/><path d="m455.289 347.173v14.25c0 5.707-4.632 10.327-10.327 10.327h-64.764v-34.904h64.764c5.695 0 10.327 4.621 10.327 10.327z" fill="url(#SVGID_00000101101412433717267560000016247780281833686427_)"/></g></g></svg>