<?xml version="1.0"?>
<svg xmlns="http://www.w3.org/2000/svg" xmlns:xlink="http://www.w3.org/1999/xlink" viewBox="0 0 512 512" width="512" height="512"><defs><linearGradient id="linear-gradient" x1="71.903" y1="547.217" x2="432.097" y2="187.024" gradientUnits="userSpaceOnUse"><stop offset="0" stop-color="#fff"/><stop offset="0.03" stop-color="#41dfd0"/><stop offset="1" stop-color="#ee83ef"/></linearGradient></defs><g id="gradient"><path d="M183.537,115.026l29.383,21.349L201.7,170.918a15.951,15.951,0,0,0,5.883,18.1,15.951,15.951,0,0,0,19.036,0L256,167.674l29.384,21.349a16.194,16.194,0,0,0,24.919-18.1L299.08,136.375l29.383-21.349a16.193,16.193,0,0,0-9.518-29.294h-36.32L271.4,51.189a16.194,16.194,0,0,0-30.8,0L229.375,85.732h-36.32a16.193,16.193,0,0,0-9.518,29.294Zm9.36-13.279a.6.6,0,0,1,.158-.015h42.133a8,8,0,0,0,7.608-5.527l13.02-40.071c.02-.062.038-.1.04-.114a1.122,1.122,0,0,1,.266-.032.631.631,0,0,1,.062.146L269.2,96.205a8,8,0,0,0,7.608,5.527h42.133c.065,0,.107.006.121,0a1.118,1.118,0,0,1,.112.243.553.553,0,0,1-.119.1l-34.086,24.765a8,8,0,0,0-2.907,8.945l13.02,40.07c.02.062.029.1.035.116a1.051,1.051,0,0,1-.2.182.6.6,0,0,1-.136-.081L260.7,151.313a8,8,0,0,0-9.4,0l-34.086,24.766c-.053.038-.09.059-.1.069a1.1,1.1,0,0,1-.234-.132.6.6,0,0,1,.036-.154l13.02-40.07a8,8,0,0,0-2.907-8.945l-34.086-24.765c-.052-.038-.084-.067-.1-.073A1.129,1.129,0,0,1,192.9,101.747ZM37.587,235.474l18.291,13.29-6.986,21.5a13.527,13.527,0,0,0,20.816,15.124L88,272.1l18.292,13.29a13.527,13.527,0,0,0,20.816-15.124l-6.986-21.5,18.291-13.289A13.528,13.528,0,0,0,130.462,211h-22.61l-6.987-21.5h0a13.527,13.527,0,0,0-25.73,0L68.148,211H45.538a13.527,13.527,0,0,0-7.951,24.471ZM73.96,227a8,8,0,0,0,7.609-5.528L88,201.682l6.431,19.793A8,8,0,0,0,102.04,227h20.812l-16.837,12.233a8,8,0,0,0-2.907,8.945l6.432,19.793L92.7,255.741a8,8,0,0,0-9.4,0L66.46,267.974l6.432-19.793a8,8,0,0,0-2.907-8.945L53.148,227Zm299.627,24.471,18.291,13.29-6.986,21.5a13.527,13.527,0,0,0,20.816,15.124L424,288.1l18.292,13.29a13.527,13.527,0,0,0,20.816-15.124l-6.986-21.5,18.291-13.289A13.528,13.528,0,0,0,466.462,227h-22.61l-6.987-21.5h0a13.527,13.527,0,0,0-25.73,0L404.148,227h-22.61a13.527,13.527,0,0,0-7.951,24.471ZM409.96,243a8,8,0,0,0,7.609-5.528L424,217.682l6.431,19.793A8,8,0,0,0,438.04,243h20.812l-16.837,12.233a8,8,0,0,0-2.907,8.945l6.432,19.793L428.7,271.741a8,8,0,0,0-9.4,0L402.46,283.974l6.432-19.793a8,8,0,0,0-2.907-8.945L389.148,243ZM488,320H344V232a8,8,0,0,0-8-8H176a8,8,0,0,0-8,8v88H24a8,8,0,0,0-8,8V488a8,8,0,0,0,8,8H488a8,8,0,0,0,8-8V328A8,8,0,0,0,488,320Zm-8,16v16H344V336ZM184,240H328v16H184ZM32,336H168v16H32Zm0,32H168V480H32Zm152-96H328V480H184ZM480,480H344V368H480ZM248,304h16v16H248ZM72,400H88v16H72Zm32,0h16v16H104Zm288,16H376V400h16Zm32,0H408V400h16Zm32,0H440V400h16Z" style="fill:url(#linear-gradient)"/></g></svg>
