<svg id="glipy_copy" viewBox="0 0 64 64" xmlns="http://www.w3.org/2000/svg" xmlns:xlink="http://www.w3.org/1999/xlink" data-name="glipy copy"><linearGradient id="linear-gradient" gradientUnits="userSpaceOnUse" x1="4" x2="60" y1="32" y2="32"><stop offset="0" stop-color="#7f00ff"/><stop offset="1" stop-color="#e100ff"/></linearGradient><path d="m16.5 20.5v8.5a2.00591 2.00591 0 0 1 -2 2h-8.5a2.00587 2.00587 0 0 1 -2-2v-8.5a2.00583 2.00583 0 0 1 2-2h8.5a2.00587 2.00587 0 0 1 2 2zm-2-16.5h-8.5a2.00583 2.00583 0 0 0 -2 2v8.5a2.00587 2.00587 0 0 0 2 2h8.5a2.00591 2.00591 0 0 0 2-2v-8.5a2.00587 2.00587 0 0 0 -2-2zm14.5 0h-8.5a2.00583 2.00583 0 0 0 -2 2v8.5a2.00587 2.00587 0 0 0 2 2h8.5a2.00591 2.00591 0 0 0 2-2v-8.5a2.00587 2.00587 0 0 0 -2-2zm14.5 0h-8.5a2.00583 2.00583 0 0 0 -2 2v8.5a2.00587 2.00587 0 0 0 2 2h8.5a2.00591 2.00591 0 0 0 2-2v-8.5a2.00587 2.00587 0 0 0 -2-2zm-29 43.5h-8.5a2.00583 2.00583 0 0 0 -2 2v8.5a2.00587 2.00587 0 0 0 2 2h8.5a2.00591 2.00591 0 0 0 2-2v-8.5a2.00587 2.00587 0 0 0 -2-2zm14.5 0h-8.5a2.00583 2.00583 0 0 0 -2 2v8.5a2.00587 2.00587 0 0 0 2 2h8.5a2.00591 2.00591 0 0 0 2-2v-8.5a2.00587 2.00587 0 0 0 -2-2zm14.5 0h-8.5a2.00583 2.00583 0 0 0 -2 2v8.5a2.00587 2.00587 0 0 0 2 2h8.5a2.00591 2.00591 0 0 0 2-2v-8.5a2.00587 2.00587 0 0 0 -2-2zm14.5 0h-8.5a2.00583 2.00583 0 0 0 -2 2v8.5a2.00587 2.00587 0 0 0 2 2h8.5a2.00591 2.00591 0 0 0 2-2v-8.5a2.00587 2.00587 0 0 0 -2-2zm0-14.5h-8.5a2.00583 2.00583 0 0 0 -2 2v8.5a2.00587 2.00587 0 0 0 2 2h8.5a2.00591 2.00591 0 0 0 2-2v-8.5a2.00587 2.00587 0 0 0 -2-2zm0-14.5h-8.5a2.00583 2.00583 0 0 0 -2 2v8.5a2.00587 2.00587 0 0 0 2 2h8.5a2.00591 2.00591 0 0 0 2-2v-8.5a2.00587 2.00587 0 0 0 -2-2z" fill="url(#linear-gradient)"/></svg>